<svg width="31" height="30" viewBox="0 0 31 30" fill="none" xmlns="http://www.w3.org/2000/svg">
<g clip-path="url(#clip0_215_88)">
<path d="M25.609 8.32845C25.441 8.15596 25.2384 8.02101 25.0144 7.93245V3.82017C25.0144 3.58846 24.9224 3.36625 24.7585 3.20241C24.5947 3.03858 24.3725 2.94653 24.1408 2.94653C23.9091 2.94653 23.6869 3.03858 23.523 3.20241C23.3592 3.36625 23.2672 3.58846 23.2672 3.82017V7.72288H23.0113C22.6018 6.34391 21.7579 5.13405 20.6053 4.27341C19.4526 3.41278 18.0529 2.94739 16.6144 2.94653H10.1943C8.75585 2.94739 7.3561 3.41278 6.20346 4.27341C5.05083 5.13405 4.20695 6.34391 3.79745 7.72288H3.45994V3.82017C3.45994 3.58846 3.3679 3.36625 3.20406 3.20241C3.04022 3.03858 2.81801 2.94653 2.58631 2.94653C2.35461 2.94653 2.13239 3.03858 1.96856 3.20241C1.80472 3.36625 1.71267 3.58846 1.71267 3.82017V7.94464C1.4996 8.03522 1.30567 8.16547 1.14122 8.32845C0.75455 8.71946 0.537058 9.24678 0.535646 9.79669V15.7623C0.535325 16.0347 0.588747 16.3045 0.692852 16.5562C0.796957 16.808 0.949701 17.0367 1.14234 17.2294C1.33497 17.422 1.56371 17.5748 1.81547 17.6789C2.06722 17.783 2.33703 17.8364 2.60946 17.8361H3.7743C4.1838 19.215 5.02768 20.4249 6.18031 21.2855C7.33295 22.1462 8.7327 22.6116 10.1712 22.6124H16.4865C17.9249 22.6116 19.3247 22.1462 20.4773 21.2855C21.63 20.4249 22.4738 19.215 22.8833 17.8361H24.047C24.3194 17.8364 24.5892 17.783 24.841 17.6789C25.0927 17.5748 25.3215 17.422 25.5141 17.2294C25.7067 17.0367 25.8595 16.808 25.9636 16.5562C26.0677 16.3045 26.1211 16.0347 26.1208 15.7623V9.79669C26.1452 9.26057 25.9612 8.7342 25.609 8.32845ZM3.57691 16.0888H2.65576C2.56884 16.0895 2.48517 16.0558 2.42303 15.995C2.36572 15.9307 2.33293 15.8483 2.33043 15.7623V9.79669C2.32778 9.71347 2.358 9.63256 2.41455 9.57145C2.4711 9.51034 2.54943 9.47395 2.63261 9.47015H3.57691C3.57161 9.52078 3.57161 9.57182 3.57691 9.62245V15.9365C3.57161 15.9871 3.57161 16.0382 3.57691 16.0888ZM8.83089 12.593V10.2049C8.81546 10.0664 8.82942 9.9262 8.87186 9.79348C8.9143 9.66076 8.98426 9.53848 9.07718 9.43464C9.17009 9.33079 9.28387 9.24772 9.41108 9.19085C9.53829 9.13397 9.67606 9.10458 9.81541 9.10458C9.95475 9.10458 10.0925 9.13397 10.2197 9.19085C10.3469 9.24772 10.4607 9.33079 10.5536 9.43464C10.6466 9.53848 10.7165 9.66076 10.759 9.79348C10.8014 9.9262 10.8153 10.0664 10.7999 10.2049V12.593C10.8153 12.7315 10.8014 12.8717 10.759 13.0044C10.7165 13.1372 10.6466 13.2594 10.5536 13.3633C10.4607 13.4671 10.3469 13.5502 10.2197 13.6071C10.0925 13.6639 9.95475 13.6933 9.81541 13.6933C9.67606 13.6933 9.53829 13.6639 9.41108 13.6071C9.28387 13.5502 9.17009 13.4671 9.07718 13.3633C8.98426 13.2594 8.9143 13.1372 8.87186 13.0044C8.82942 12.8717 8.81546 12.7315 8.83089 12.593ZM16.4865 17.055C15.6642 17.8676 14.5549 18.3233 13.3989 18.3233C12.2429 18.3233 11.1335 17.8676 10.3113 17.055C10.1497 16.893 10.0491 16.68 10.0268 16.4522C10.0044 16.2244 10.0616 15.9959 10.1887 15.8055C10.3157 15.6151 10.5048 15.4746 10.7237 15.4079C10.9427 15.3411 11.178 15.3522 11.3897 15.4394C11.5096 15.49 11.6181 15.5642 11.7089 15.6575C12.1653 16.0895 12.7698 16.3302 13.3983 16.3302C14.0267 16.3302 14.6313 16.0895 15.0877 15.6575C15.1789 15.5645 15.2877 15.4906 15.4078 15.4402C15.5279 15.3898 15.6568 15.3638 15.7871 15.3638C15.9173 15.3638 16.0462 15.3898 16.1663 15.4402C16.2864 15.4906 16.3953 15.5645 16.4865 15.6575C16.5798 15.7496 16.6539 15.8594 16.7044 15.9804C16.755 16.1014 16.781 16.2312 16.781 16.3623C16.781 16.4935 16.755 16.6233 16.7044 16.7443C16.6539 16.8653 16.5798 16.9751 16.4865 17.0672V17.055ZM18.1521 12.5589H15.8212C15.6258 12.5586 15.4349 12.5005 15.2725 12.3918C15.1102 12.2831 14.9836 12.1288 14.9088 11.9483C14.834 11.7679 14.8143 11.5693 14.8522 11.3776C14.8901 11.1859 14.9839 11.0098 15.1218 10.8714C15.2137 10.7801 15.3229 10.7082 15.443 10.6596C15.5631 10.6111 15.6917 10.587 15.8212 10.5887H18.1521C18.3151 10.5863 18.4761 10.6245 18.6205 10.6999C18.765 10.7753 18.8884 10.8856 18.9796 11.0207C19.0708 11.1558 19.1269 11.3114 19.1428 11.4736C19.1587 11.6358 19.134 11.7995 19.0708 11.9497C18.9974 12.1332 18.8705 12.2904 18.7067 12.401C18.5429 12.5115 18.3497 12.5704 18.1521 12.5699V12.5589ZM24.4661 15.7513C24.4633 15.8369 24.4306 15.9189 24.3735 15.9828C24.3114 16.0436 24.2277 16.0773 24.1408 16.0766H23.2196C23.2249 16.0264 23.2249 15.9758 23.2196 15.9255V9.57493C23.2249 9.5247 23.2249 9.47407 23.2196 9.42384H24.1518C24.1932 9.42359 24.2342 9.43178 24.2723 9.44791C24.3104 9.46404 24.3449 9.48778 24.3735 9.51767C24.432 9.58103 24.4661 9.66388 24.4661 9.74917V15.7513Z" fill="#3C3C3F"/>
</g>
<defs>
<clipPath id="clip0_215_88">
<rect width="30" height="30" fill="white" transform="translate(0.0766602)"/>
</clipPath>
</defs>
</svg>
