<svg width="31" height="31" viewBox="0 0 31 31" fill="none" xmlns="http://www.w3.org/2000/svg">
<path fill-rule="evenodd" clip-rule="evenodd" d="M15.0718 2.65748C17.9566 2.65318 20.7534 3.65084 22.9843 5.47998L16.688 11.7725C15.9005 11.396 15.0062 11.306 14.1594 11.5181C13.3126 11.7302 12.5664 12.2311 12.0493 12.9344C11.5322 13.6377 11.2767 14.4994 11.3268 15.3709C11.3768 16.2424 11.7294 17.0692 12.3237 17.7086C12.918 18.348 13.7167 18.7601 14.5822 18.8738C15.4477 18.9875 16.3258 18.7956 17.065 18.3314C17.8043 17.8671 18.3584 17.1594 18.6318 16.3304C18.9053 15.5014 18.881 14.603 18.563 13.79L18.4568 13.54L24.7493 7.24498C26.5784 9.47582 27.5761 12.2726 27.5718 15.1575C27.5718 22.0612 21.9755 27.6575 15.0718 27.6575C8.16803 27.6575 2.57178 22.0612 2.57178 15.1575C2.57178 8.25374 8.16803 2.65748 15.0718 2.65748ZM6.32178 13.9075H5.14928C5.06231 14.5999 5.04806 15.2996 5.10678 15.995L5.14928 16.4075H6.32178C6.64038 16.4071 6.94682 16.2851 7.17849 16.0664C7.41016 15.8477 7.54957 15.5488 7.56824 15.2307C7.58691 14.9127 7.48343 14.5995 7.27895 14.3552C7.07446 14.1109 6.7844 13.9539 6.46803 13.9162L6.32178 13.9075ZM24.9943 13.9075H23.8218C23.5032 13.9078 23.1967 14.0298 22.9651 14.2485C22.7334 14.4673 22.594 14.7662 22.5753 15.0842C22.5566 15.4023 22.6601 15.7155 22.8646 15.9598C23.0691 16.2041 23.3592 16.3611 23.6755 16.3987L23.8218 16.4075H24.9943C25.0812 15.715 25.0955 15.0154 25.0368 14.32L24.9943 13.9075ZM15.0718 13.9075C15.4033 13.9075 15.7212 14.0392 15.9557 14.2736C16.1901 14.508 16.3218 14.826 16.3218 15.1575C16.3218 15.489 16.1901 15.8069 15.9557 16.0414C15.7212 16.2758 15.4033 16.4075 15.0718 16.4075C14.7403 16.4075 14.4223 16.2758 14.1879 16.0414C13.9535 15.8069 13.8218 15.489 13.8218 15.1575C13.8218 14.826 13.9535 14.508 14.1879 14.2736C14.4223 14.0392 14.7403 13.9075 15.0718 13.9075ZM8.93928 7.25748C8.41101 7.66783 7.92524 8.13015 7.48928 8.63748L7.17178 9.02498L8.00053 9.85373C8.22495 10.0803 8.52749 10.2125 8.84621 10.2233C9.16493 10.2342 9.47574 10.1227 9.715 9.9119C9.95427 9.70107 10.1039 9.40675 10.1333 9.0892C10.1627 8.77166 10.0696 8.45489 9.87303 8.20373L9.76803 8.08623L8.93928 7.25748ZM15.0718 5.15748C14.6539 5.15718 14.2364 5.18306 13.8218 5.23498V6.40748C13.8218 6.73901 13.9535 7.05695 14.1879 7.29137C14.4223 7.52579 14.7403 7.65748 15.0718 7.65748C15.4033 7.65748 15.7212 7.52579 15.9557 7.29137C16.1901 7.05695 16.3218 6.73901 16.3218 6.40748V5.23498C15.9071 5.18306 15.4897 5.15718 15.0718 5.15748Z" fill="#3C3C3F"/>
</svg>
