<svg width="31" height="31" viewBox="0 0 31 31" fill="none" xmlns="http://www.w3.org/2000/svg">
<path d="M27.3198 15.9089V15.9319C27.3198 22.5589 21.9478 27.9309 15.3208 27.9309C12.5703 27.935 9.90255 26.9902 7.76775 25.2559L7.78975 25.2739C7.66314 25.1715 7.5595 25.0436 7.48559 24.8985C7.41167 24.7534 7.36913 24.5944 7.36073 24.4318C7.35234 24.2691 7.37828 24.1066 7.43686 23.9546C7.49544 23.8027 7.58536 23.6648 7.70075 23.5499L8.24575 23.0049C8.44659 22.8015 8.71545 22.6794 9.00077 22.6621C9.28608 22.6448 9.56775 22.7334 9.79175 22.9109L9.78975 22.9089C11.3613 24.1595 13.3114 24.8383 15.3198 24.8339C16.7725 24.8339 18.2031 24.4784 19.4869 23.7985C20.7706 23.1185 21.8685 22.1348 22.6847 20.933C23.5009 19.7313 24.0106 18.3481 24.1694 16.9041C24.3282 15.4601 24.1312 13.9991 23.5956 12.6487C23.0601 11.2984 22.2022 10.0995 21.0969 9.15687C19.9916 8.2142 18.6724 7.55634 17.2544 7.24066C15.8364 6.92498 14.3627 6.96109 12.9618 7.34583C11.561 7.73057 10.2756 8.45225 9.21775 9.44792L9.22275 9.44392L11.6788 11.8999C11.7869 12.0082 11.8606 12.1462 11.8904 12.2963C11.9201 12.4465 11.9047 12.6021 11.8461 12.7435C11.7874 12.8849 11.6882 13.0057 11.5608 13.0907C11.4335 13.1757 11.2838 13.221 11.1308 13.2209H4.09675C3.89148 13.2209 3.69461 13.1394 3.54945 12.9942C3.4043 12.8491 3.32275 12.6522 3.32275 12.4469V5.41292C3.32315 5.26005 3.36875 5.11071 3.45381 4.9837C3.53887 4.85668 3.65959 4.75765 3.80079 4.69908C3.94199 4.6405 4.09736 4.62499 4.24736 4.6545C4.39735 4.68401 4.53527 4.75722 4.64375 4.86492L7.03275 7.25392C9.26307 5.11757 12.2333 3.92681 15.3218 3.93092C21.9408 3.93092 27.3088 9.29092 27.3208 15.9069V15.9079L27.3198 15.9089ZM18.5668 19.7199L19.0418 19.1089C19.2309 18.8662 19.3158 18.5584 19.2779 18.2531C19.24 17.9478 19.0824 17.67 18.8398 17.4809L18.8368 17.4789L16.8678 15.9469V10.8989C16.8678 10.2579 16.3478 9.73692 15.7058 9.73692H14.9318C14.2908 9.73692 13.7698 10.2569 13.7698 10.8989V17.4589L16.9348 19.9199C17.0547 20.0141 17.192 20.0838 17.3388 20.1249C17.4857 20.166 17.6392 20.1777 17.7906 20.1594C17.942 20.1411 18.0883 20.0931 18.2211 20.0182C18.354 19.9433 18.4707 19.843 18.5648 19.7229L18.5668 19.7199Z" fill="#3C3C3F"/>
</svg>
