<svg width="31" height="31" viewBox="0 0 31 31" fill="none" xmlns="http://www.w3.org/2000/svg">
<path fill-rule="evenodd" clip-rule="evenodd" d="M5.67155 5.3484C5.40784 5.8834 5.40784 6.5834 5.40784 7.9834V8.7509L27.1699 6.7059C27.1469 6.0959 27.0853 5.6884 26.9183 5.3484C26.6864 4.87801 26.3163 4.49558 25.8611 4.2559C25.3433 3.9834 24.6659 3.9834 23.3111 3.9834H9.2788C7.92397 3.9834 7.24655 3.9834 6.7288 4.2559C6.27359 4.49558 5.90349 4.87801 5.67155 5.3484ZM27.182 9.2159L21.2969 9.7684L24.3284 26.4771C25.0445 26.4609 25.4933 26.4046 25.8611 26.2109C26.3163 25.9712 26.6864 25.5888 26.9183 25.1184C27.182 24.5834 27.182 23.8834 27.182 22.4834V9.2159ZM21.8691 26.4834L18.8764 9.9959L5.40784 11.2609V22.4834C5.40784 23.8834 5.40784 24.5834 5.67155 25.1184C5.90349 25.5888 6.27359 25.9712 6.7288 26.2109C7.24655 26.4834 7.92397 26.4834 9.2788 26.4834H21.8691ZM16.8998 19.0209C16.8998 21.7184 14.3111 23.6134 13.1824 24.3121C13.0264 24.4089 12.8479 24.46 12.6659 24.46C12.4839 24.46 12.3054 24.4089 12.1494 24.3121C11.0207 23.6134 8.43203 21.7184 8.43203 19.0196C8.43203 16.3734 10.4836 14.6084 12.6659 14.6084C14.9244 14.6084 16.8998 16.3734 16.8998 19.0209Z" fill="#3C3C3F"/>
<path d="M12.6659 20.2332C13.334 20.2332 13.8756 19.6735 13.8756 18.9832C13.8756 18.2928 13.334 17.7332 12.6659 17.7332C11.9978 17.7332 11.4562 18.2928 11.4562 18.9832C11.4562 19.6735 11.9978 20.2332 12.6659 20.2332Z" fill="#3C3C3F"/>
</svg>
